<?xml version="1.0" encoding="UTF-8" standalone="no"?>
<svg width="112px" height="39px" viewBox="0 0 112 39" version="1.1" xmlns="http://www.w3.org/2000/svg" xmlns:xlink="http://www.w3.org/1999/xlink">
    <!-- Generator: Sketch 43.2 (39069) - http://www.bohemiancoding.com/sketch -->
    <title>Group</title>
    <desc>Created with Sketch.</desc>
    <defs></defs>
    <g id="Page-1" stroke="none" stroke-width="1" fill="none" fill-rule="evenodd">
        <g id="Desktop-HD" transform="translate(-660.000000, -40.000000)" fill="#000000">
            <g id="Group-2" transform="translate(620.000000, -1.000000)">
                <g id="Group" transform="translate(39.814815, 40.740741)">
                    <path d="M15.9888947,17.7648801 C15.9888947,20.2486566 15.1678139,22.1813861 13.5256275,23.5631266 C11.8834411,24.9448672 9.59335154,25.6357271 6.65529016,25.6357271 C5.4264432,25.6357271 4.26464168,25.4986739 3.16985075,25.2245634 C2.07505982,24.950453 1.13109608,24.5504814 0.337931225,24.0246369 L0.337931225,18.1508705 C1.27632345,18.7438441 2.35154842,19.2417108 3.56363837,19.6444854 C4.77572833,20.0472599 5.87329563,20.2486442 6.85637321,20.2486442 C7.68305207,20.2486442 8.30863751,20.07523 8.73314827,19.7283963 C9.15765904,19.3815627 9.36991124,18.88929 9.36991124,18.2515636 C9.36991124,17.9494827 9.30288423,17.6669853 9.1688282,17.404063 C9.03477217,17.1411408 8.8448623,16.8782224 8.59909291,16.6153001 C8.35332352,16.3523778 7.69422458,15.7733981 6.62177632,14.8783435 C5.31473001,13.8266543 4.36518069,12.7526049 3.77309988,11.6561631 C3.18101907,10.5597212 2.8849831,9.35700963 2.8849831,8.04799229 C2.8849831,6.5823404 3.25083887,5.26495168 3.98256138,4.09578662 C4.71428389,2.92662156 5.74761697,2.02039238 7.08259163,1.3770719 C8.41756628,0.73375141 9.91171007,0.412095991 11.5650678,0.412095991 C14.2350171,0.412095991 16.6368183,1.01065477 18.7705435,2.20779029 L16.5083593,7.19210062 C14.5980608,6.20754057 12.9726558,5.71526793 11.6320955,5.71526793 C10.91713,5.71526793 10.3669499,5.87190013 9.98153883,6.18516924 C9.59612774,6.49843835 9.40342508,6.95714694 9.40342508,7.56130879 C9.40342508,8.10952973 9.59054216,8.6213814 9.96478191,9.09687915 C10.3390217,9.5723769 11.0511837,10.2072967 12.1012892,11.0016577 C13.4195069,11.9750295 14.3969841,12.9987329 15.0337503,14.0727984 C15.6705164,15.1468639 15.9888947,16.3775455 15.9888947,17.7648801 Z M31.1669407,0.378531612 C34.0491454,0.378531612 36.2861719,1.2148357 37.8780873,2.88746897 C39.4700027,4.56010224 40.2659484,6.87322425 40.2659484,9.8269044 C40.2659484,12.9595955 39.6291918,15.8069452 38.3556595,18.3690389 C37.0821272,20.9311327 35.3505961,22.8275012 33.1610142,24.0582012 L37.1491613,31.1402853 L29.7928733,31.1402853 L27.0782522,25.6357271 L26.8771692,25.6357271 C23.9949645,25.6357271 21.757938,24.799423 20.1660226,23.1267897 C18.5741072,21.4541564 17.7781615,19.1410344 17.7781615,16.1873543 C17.7781615,13.222486 18.3506838,10.5037984 19.4957458,8.0312101 C20.6408077,5.5586218 22.2159425,3.66505033 24.2211973,2.3504389 C26.2264521,1.03582747 28.5416768,0.378531612 31.1669407,0.378531612 Z M30.6139624,5.88308983 C29.4633148,5.88308983 28.4104321,6.34739243 27.4552829,7.27601157 C26.5001337,8.20463071 25.7544582,9.46887635 25.218234,11.0687864 C24.6820099,12.6686965 24.4139019,14.3972448 24.4139019,16.254483 C24.4139019,17.541124 24.6792171,18.5060903 25.2098556,19.1494108 C25.740494,19.7927313 26.4917551,20.1143867 27.4636614,20.1143867 C28.6031376,20.1143867 29.6448491,19.6612721 30.588827,18.7550293 C31.5328049,17.8487865 32.2784804,16.5929319 32.8258758,14.9874277 C33.3732713,13.3819236 33.6469649,11.6393903 33.6469649,9.75977564 C33.6469649,8.48432285 33.3844425,7.51935659 32.8593897,6.86484792 C32.3343369,6.21033925 31.5858686,5.88308983 30.6139624,5.88308983 Z M63.2359624,0.764521974 L59.9013352,16.4055228 C59.2422264,19.549402 57.9854699,21.873712 56.1310282,23.3785226 C54.2765864,24.8833331 51.7574879,25.6357271 48.5736571,25.6357271 C47.0766981,25.6357271 45.7557074,25.3280567 44.6106455,24.7127066 C43.4655835,24.0973566 42.5830612,23.2358795 41.9630521,22.1282494 C41.3430429,21.0206194 41.033043,19.7843438 41.033043,18.4193855 C41.033043,17.7033418 41.10007,16.9817149 41.2341261,16.254483 L44.5687532,0.764521974 L51.120709,0.764521974 L47.8531096,16.0866611 C47.6967109,16.8474576 47.6185127,17.4907684 47.6185127,18.016613 C47.6185127,19.4375121 48.2943684,20.147951 49.6461,20.147951 C50.6962056,20.147951 51.5200793,19.7871376 52.1177458,19.0654998 C52.7154122,18.3438621 53.1706374,17.2390456 53.4834348,15.7510174 L56.6840065,0.764521974 L63.2359624,0.764521974 Z M61.1376236,25.3000833 L66.3155119,0.764521974 L72.9680093,0.764521974 L67.7901209,25.3000833 L61.1376236,25.3000833 Z M92.821236,10.0450729 C92.821236,13.1777639 92.2682632,15.8936545 91.1623009,18.192826 C90.0563386,20.4919974 88.4504832,22.2513127 86.3446863,23.4708246 C84.2388895,24.6903365 81.7449261,25.3000833 78.8627214,25.3000833 L70.970212,25.3000833 L76.1481004,0.764521974 L83.1189792,0.764521974 C86.2022679,0.764521974 88.5901052,1.57285603 90.2825626,3.18954838 C91.97502,4.80624074 92.821236,7.09139271 92.821236,10.0450729 Z M79.8513797,19.8626538 C81.0802267,19.8626538 82.177794,19.4710733 83.1441146,18.6879005 C84.1104351,17.9047278 84.8616962,16.7887233 85.3979203,15.3398537 C85.9341445,13.8909841 86.2022525,12.2379549 86.2022525,10.3807167 C86.2022525,8.98219386 85.900631,7.92212948 85.2973788,7.20049171 C84.6941267,6.47885395 83.8507034,6.11804048 82.7670839,6.11804048 L81.5773425,6.11804048 L78.6951522,19.8626538 L79.8513797,19.8626538 Z M107.295491,25.3000833 L89.9688358,25.3000833 L90.7564111,21.2387934 L102.318686,6.11804048 L94.2921212,6.11804048 L95.4148349,0.764521974 L111.937158,0.764521974 L111.065798,4.87615844 L99.3359542,19.9465648 L108.434962,19.9465648 L107.295491,25.3000833 Z" id="SQUIDZ"></path>
                    <path d="M43.5679927,36.6224672 L40.2315037,36.6224672 L39.3005636,38.666165 L36.2768705,38.666165 L41.8178254,27.7614711 L45.5639281,27.7614711 L46.479973,38.666165 L43.6424679,38.666165 L43.5679927,36.6224672 Z M41.296499,34.2953369 L43.4786224,34.2953369 L43.3520146,31.1328265 L43.3371195,30.491374 C43.3371195,30.1184345 43.3470495,29.792739 43.3669096,29.5142776 C43.2477487,29.9419148 43.0963173,30.3546282 42.9126109,30.7524302 L41.296499,34.2953369 Z M57.9366422,31.028404 C57.9366422,32.2814805 57.5108966,33.2647826 56.6593925,33.97834 C55.8078885,34.6918974 54.6423632,35.0486708 53.1627818,35.0486708 L52.5222951,35.0486708 L51.7775431,38.666165 L48.8655627,38.666165 L51.1668464,27.7614711 L53.9447715,27.7614711 C55.2307164,27.7614711 56.2175029,28.0436577 56.9051607,28.6080393 C57.5928185,29.172421 57.9366422,29.9792011 57.9366422,31.028404 Z M53.0436215,32.6618705 L53.5128153,32.6618705 C53.9646338,32.6618705 54.3295586,32.5164263 54.6076007,32.2255336 C54.8856429,31.9346408 55.0246619,31.5654363 55.0246619,31.117909 C55.0246619,30.82453 54.9352925,30.5883386 54.7565511,30.4093277 C54.5778098,30.2303168 54.3320441,30.1408127 54.0192467,30.1408127 L53.579843,30.1408127 L53.0436215,32.6618705 Z M68.5740842,31.028404 C68.5740842,32.2814805 68.1483386,33.2647826 67.2968345,33.97834 C66.4453305,34.6918974 65.2798052,35.0486708 63.8002238,35.0486708 L63.1597371,35.0486708 L62.4149851,38.666165 L59.5030047,38.666165 L61.8042884,27.7614711 L64.5822134,27.7614711 C65.8681583,27.7614711 66.8549449,28.0436577 67.5426027,28.6080393 C68.2302605,29.172421 68.5740842,29.9792011 68.5740842,31.028404 Z M63.6810635,32.6618705 L64.1502573,32.6618705 C64.6020757,32.6618705 64.9670006,32.5164263 65.2450427,32.2255336 C65.5230849,31.9346408 65.6621039,31.5654363 65.6621039,31.117909 C65.6621039,30.82453 65.5727345,30.5883386 65.3939931,30.4093277 C65.2152518,30.2303168 64.969486,30.1408127 64.6566886,30.1408127 L64.2172849,30.1408127 L63.6810635,32.6618705 Z M75.5250037,36.6224672 L72.1885147,36.6224672 L71.2575747,38.666165 L68.2338816,38.666165 L73.7748365,27.7614711 L77.5209391,27.7614711 L78.4369841,38.666165 L75.5994789,38.666165 L75.5250037,36.6224672 Z M73.2535101,34.2953369 L75.4356335,34.2953369 L75.3090257,31.1328265 L75.2941306,30.491374 C75.2941306,30.1184345 75.3040605,29.792739 75.3239207,29.5142776 C75.2047598,29.9419148 75.0533284,30.3546282 74.869622,30.7524302 L73.2535101,34.2953369 Z M84.5761239,34.6981095 L83.7345542,38.666165 L80.8225738,38.666165 L83.1238575,27.7614711 L86.0060478,27.7614711 C87.2572374,27.7614711 88.2154754,28.0100936 88.8807906,28.5073462 C89.5461057,29.0045987 89.8787583,29.7529526 89.8787583,30.7524302 C89.8787583,31.5281442 89.7025021,32.2043975 89.3499843,32.7812105 C88.9974666,33.3580235 88.4736629,33.7980854 87.7785576,34.1014094 L89.4468021,37.9501249 L89.7447029,38.666165 L86.5720593,38.666165 L85.1197929,34.6981095 L84.5761239,34.6981095 Z M85.0453177,32.4828605 L85.4251412,32.4828605 C85.8968199,32.4828605 86.2716746,32.3473612 86.5497168,32.0763585 C86.8277589,31.8053559 86.9667779,31.4262065 86.9667779,30.938899 C86.9667779,30.6306024 86.8811323,30.3956541 86.7098385,30.234047 C86.5385446,30.07244 86.2890552,29.9916376 85.9613627,29.9916376 L85.5666441,29.9916376 L85.0453177,32.4828605 Z M98.3340769,38.666165 L91.8696294,38.666165 L94.1709131,27.7614711 L100.635361,27.7614711 L100.151272,30.1258952 L96.5988047,30.1258952 L96.2487712,31.8414079 L99.5554702,31.8414079 L99.0192487,34.2058319 L95.7125498,34.2058319 L95.2880411,36.2644472 L98.8405082,36.2644472 L98.3340769,38.666165 Z M101.576131,38.666165 L103.877415,27.7614711 L106.789395,27.7614711 L104.994543,36.2868235 L108.54701,36.2868235 L108.040579,38.666165 L101.576131,38.666165 Z" id="APPAREL"></path>
                </g>
            </g>
        </g>
    </g>
</svg>